<?xml version="1.0" encoding="UTF-8" standalone="no"?>
<!DOCTYPE svg PUBLIC "-//W3C//DTD SVG 1.1//EN" "http://www.w3.org/Graphics/SVG/1.1/DTD/svg11.dtd">
<svg width="100%" height="100%" viewBox="0 0 24 24" version="1.1" xmlns="http://www.w3.org/2000/svg" xmlns:xlink="http://www.w3.org/1999/xlink" xml:space="preserve" xmlns:serif="http://www.serif.com/" style="fill-rule:evenodd;clip-rule:evenodd;stroke-linejoin:round;stroke-miterlimit:2;">
    <g transform="matrix(1,0,0,1,-2464.82,-280.934)">
        <g transform="matrix(1,0,0,1,-0.927786,-0.204373)">
            <g transform="matrix(1.15464,0,0,1.15464,-379.473,-42.7363)">
                <rect x="2464.15" y="280.497" width="20.786" height="20.786" style="fill:none;"/>
            </g>
            <g transform="matrix(1,0,0,1,2466.72,283.208)">
                <path d="M18.771,16.75L15,16.75C14.788,16.75 14.609,16.678 14.466,16.534C14.322,16.39 14.25,16.212 14.25,16C14.25,15.787 14.322,15.609 14.466,15.466C14.609,15.322 14.788,15.25 15,15.25L18.771,15.25L17.458,13.917C17.319,13.779 17.252,13.607 17.255,13.403C17.258,13.198 17.334,13.021 17.483,12.871C17.619,12.734 17.793,12.666 18.003,12.666C18.214,12.666 18.389,12.735 18.527,12.873L21.012,15.367C21.095,15.451 21.158,15.547 21.202,15.658C21.246,15.768 21.267,15.882 21.267,16C21.267,16.118 21.246,16.232 21.202,16.342C21.158,16.453 21.095,16.549 21.012,16.633L18.517,19.127C18.379,19.265 18.207,19.336 18.003,19.337C17.799,19.339 17.621,19.265 17.472,19.115C17.334,18.978 17.266,18.806 17.266,18.6C17.266,18.394 17.335,18.221 17.473,18.083L18.771,16.75ZM4.058,16.75C3.561,16.75 3.135,16.573 2.781,16.219C2.427,15.865 2.25,15.439 2.25,14.942L2.25,5.058C2.25,4.561 2.427,4.135 2.781,3.781C3.135,3.427 3.561,3.25 4.058,3.25L16.942,3.25C17.439,3.25 17.865,3.427 18.219,3.781C18.573,4.135 18.75,4.561 18.75,5.058L18.75,9.546C18.75,9.742 18.674,9.916 18.522,10.068C18.37,10.22 18.195,10.296 17.996,10.296C17.785,10.296 17.608,10.224 17.465,10.08C17.322,9.937 17.25,9.759 17.25,9.546L17.25,5.823L10.4,10.692L3.75,5.839L3.75,14.942C3.75,15.032 3.779,15.106 3.837,15.163C3.894,15.221 3.968,15.25 4.058,15.25L11.546,15.25C11.759,15.25 11.937,15.322 12.081,15.466C12.224,15.61 12.296,15.788 12.296,16C12.296,16.213 12.224,16.391 12.081,16.534C11.937,16.678 11.759,16.75 11.546,16.75L4.058,16.75ZM4.796,4.75L10.4,8.858L16.173,4.75L4.796,4.75ZM3.75,15.25L3.75,4.75L3.75,15.25Z" style="fill:rgb(28,78,216);fill-rule:nonzero;"/>
            </g>
        </g>
    </g>
</svg>
