<?xml version="1.0" encoding="UTF-8" standalone="no"?>
<!DOCTYPE svg PUBLIC "-//W3C//DTD SVG 1.1//EN" "http://www.w3.org/Graphics/SVG/1.1/DTD/svg11.dtd">
<svg width="100%" height="100%" viewBox="0 0 24 24" version="1.1" xmlns="http://www.w3.org/2000/svg" xmlns:xlink="http://www.w3.org/1999/xlink" xml:space="preserve" xmlns:serif="http://www.serif.com/" style="fill-rule:evenodd;clip-rule:evenodd;stroke-linejoin:round;stroke-miterlimit:2;">
    <g transform="matrix(1,0,0,1,-2302.05,-273.327)">
        <g transform="matrix(1,0,0,1,-0.927786,-0.204373)">
            <g transform="matrix(0.57508,0,0,0.57508,996.821,116.346)">
                <rect x="2271.26" y="273.327" width="41.733" height="41.733" style="fill:none;"/>
            </g>
            <g id="whatsapp" transform="matrix(0.992269,0,0,0.992269,2303.07,271.64)">
                <path d="M15.391,15.219C15.657,15.219 18.203,16.547 18.313,16.735C18.344,16.813 18.344,16.907 18.344,16.969C18.344,17.36 18.219,17.797 18.078,18.157C17.719,19.032 16.265,19.594 15.375,19.594C14.625,19.594 13.078,18.938 12.406,18.625C10.172,17.609 8.781,15.875 7.437,13.891C6.843,13.016 6.312,11.938 6.328,10.86L6.328,10.735C6.359,9.704 6.734,8.969 7.484,8.266C7.718,8.047 7.968,7.922 8.296,7.922C8.483,7.922 8.671,7.969 8.874,7.969C9.296,7.969 9.374,8.094 9.53,8.5C9.639,8.766 10.436,10.891 10.436,11.047C10.436,11.641 9.358,12.313 9.358,12.672C9.358,12.75 9.389,12.828 9.436,12.906C9.78,13.64 10.436,14.484 11.03,15.047C11.749,15.735 12.514,16.188 13.389,16.625C13.498,16.688 13.608,16.734 13.733,16.734C14.202,16.734 14.983,15.218 15.389,15.218L15.391,15.219ZM12.219,23.5C17.625,23.5 22.031,19.094 22.031,13.688C22.031,8.282 17.625,3.876 12.219,3.876C6.813,3.876 2.407,8.282 2.407,13.688C2.407,15.751 3.063,17.766 4.282,19.438L3.048,23.079L6.829,21.876C8.423,22.923 10.313,23.501 12.22,23.501L12.219,23.5ZM12.219,1.906C18.719,1.906 24,7.187 24,13.687C24,20.187 18.719,25.468 12.219,25.468C10.235,25.468 8.266,24.968 6.516,23.999L-0,26.093L2.125,19.765C1.016,17.937 0.438,15.827 0.438,13.687C0.438,7.187 5.719,1.906 12.219,1.906Z" style="fill:white;fill-rule:nonzero;"/>
            </g>
        </g>
    </g>
</svg>
