<?xml version="1.0" encoding="utf-8"?>
<!-- Generator: Adobe Illustrator 20.0.0, SVG Export Plug-In . SVG Version: 6.00 Build 0)  -->
<svg version="1.1" id="レイヤー_1" xmlns="http://www.w3.org/2000/svg" xmlns:xlink="http://www.w3.org/1999/xlink" x="0px"
	 y="0px" viewBox="0 0 331.2 67.8" style="enable-background:new 0 0 331.2 67.8;" xml:space="preserve">
<style type="text/css">
	.st0{fill:#6A43B7;}
</style>
<g>
	<path class="st0" d="M30.9,65.6c-16.1-1.8-28.6-15.4-28.6-32c0-16.6,12.5-30.3,28.7-32l-3,7.7C17.2,12.1,9.2,21.9,9.2,33.6
		c0,11.6,7.9,21.5,18.6,24.3L30.9,65.6z M37.9,65.6c16.2-1.7,28.8-15.4,28.8-32C66.7,16.9,54,3.2,37.8,1.5l3.4,7.7
		C51.8,12.2,59.7,22,59.7,33.6c0,11.7-7.9,21.5-18.7,24.4L37.9,65.6z M34.5,1.4c0,0-8.3,14.4-8.3,32.2c0,17.8,8.3,32.2,8.3,32.2
		s5.9-10.3,7.8-24.3c2.5-1.4,8-4.7,11-8c-3-3.3-8.5-6.6-11-8C40.4,11.7,34.5,1.4,34.5,1.4z M53.2,33.6
		C53.2,33.6,53.2,33.6,53.2,33.6L53.2,33.6C53.2,33.6,53.2,33.6,53.2,33.6z"/>
	<g>
		<path class="st0" d="M89.7,53.7V20H81v-6.6h25.1V20h-8.7v33.6H89.7z"/>
		<path class="st0" d="M108.7,33.7c0-4.3,0.2-7.7,0.6-10.2c0.4-2.6,1.1-4.5,2-5.8c1.2-1.8,2.7-3.1,4.4-3.9c1.7-0.8,4-1.2,6.7-1.2
			c2.8,0,5,0.4,6.7,1.2c1.7,0.8,3.2,2.1,4.4,3.9c0.9,1.3,1.6,3.3,2,5.8c0.4,2.5,0.6,5.9,0.6,10.2c0,4.2-0.2,7.6-0.6,10.2
			c-0.4,2.6-1.1,4.5-2,5.8c-1.2,1.8-2.7,3.1-4.4,3.9c-1.7,0.8-4,1.2-6.7,1.2c-2.8,0-5-0.4-6.7-1.2c-1.7-0.8-3.2-2.1-4.4-3.9
			c-0.9-1.3-1.6-3.2-2-5.8C108.9,41.4,108.7,38,108.7,33.7z M116.7,33.7c0,6.6,0.4,10.8,1.2,12.5c0.8,1.7,2.3,2.6,4.5,2.6
			c2.2,0,3.6-0.8,4.4-2.5c0.8-1.7,1.2-5.9,1.2-12.6c0-6.7-0.4-10.9-1.2-12.6c-0.8-1.7-2.3-2.6-4.5-2.6c-2.2,0-3.7,0.9-4.5,2.6
			C117.1,22.8,116.7,27,116.7,33.7z"/>
		<path class="st0" d="M141.1,53.7V13.4H155c4.2,0,7.2,0.8,9,2.5c1.8,1.6,2.8,4.3,2.8,8.1c0,2.6-0.5,4.7-1.5,6.2
			c-1,1.5-2.4,2.4-4.4,2.7c3.7,0.9,5.6,4,5.7,9c0,0.2,0,0.4,0,0.5l0.2,5.3c0.1,1.5,0.3,2.7,0.6,3.6c0.3,0.9,0.8,1.7,1.5,2.4h-9.2
			c-0.2-0.7-0.4-1.5-0.5-2.4c-0.1-0.9-0.2-2.2-0.2-3.9l-0.1-4.2v-1.1c0-2.3-0.5-3.9-1.5-4.8c-1-0.9-3.1-1.3-6.2-1.3h-2.6v17.7H141.1
			z M148.6,30.4h4.4c2.2,0,3.8-0.4,4.7-1.3c0.9-0.9,1.3-2.4,1.3-4.7c0-2-0.5-3.4-1.4-4.2c-1-0.8-2.7-1.2-5.2-1.2h-3.8V30.4z"/>
		<path class="st0" d="M172.9,53.7V13.4h7.5v40.3H172.9z"/>
		<path class="st0" d="M185.2,39.9h8v2.6c0,2.5,0.3,4.2,1,5.1c0.7,0.9,1.8,1.3,3.4,1.3c1.7,0,3-0.4,3.9-1.2c0.9-0.8,1.3-2,1.3-3.6
			c0-1.2-0.3-2.2-0.9-3.1c-0.6-0.9-1.9-2-4-3.3l-4.1-2.7c-3.5-2.3-5.8-4.2-6.7-5.7c-1-1.5-1.4-3.4-1.4-5.6c0-3.4,1.1-6,3.2-8
			c2.1-1.9,5.1-2.9,8.8-2.9c4,0,7,1,9.1,3.1c2.1,2,3.2,5,3.2,8.8c0,0.4,0,0.7,0,0.9c0,0.2,0,0.4,0,0.5h-7.6V25
			c0-2.2-0.4-3.7-1.1-4.7c-0.8-0.9-2-1.4-3.8-1.4c-1.3,0-2.3,0.4-3,1.1c-0.7,0.7-1.1,1.7-1.1,2.9c0,1.7,1.6,3.6,4.9,5.6
			c0,0,0.1,0,0.1,0.1l4.4,2.8c3.1,2,5.3,3.8,6.4,5.5c1.1,1.7,1.7,3.9,1.7,6.6c0,3.7-1.1,6.5-3.3,8.5c-2.2,2-5.4,3-9.5,3
			c-4.3,0-7.5-1-9.6-3.1c-2.1-2.1-3.2-5.3-3.2-9.6c0-0.5,0-1.2,0.1-2.2V39.9z"/>
		<path class="st0" d="M214.5,53.7V13.4h7.4v15.8h10.3V13.4h7.4v40.3h-7.4V35.4h-10.3v18.2H214.5z"/>
		<path class="st0" d="M246.4,53.7V13.4h7.5v40.3H246.4z"/>
		<path class="st0" d="M260.8,53.7V13.4h11.9l5.8,25.1l5.8-25.1h11.9v40.3h-7.5l-0.1-28.5l-7.7,28.5h-4.9l-7.7-28.5l0,28.5H260.8z"
			/>
		<path class="st0" d="M300.1,53.7l9.1-40.3h10.1l9.2,40.3h-8.1l-2-10.1h-8.6l-1.9,10.1H300.1z M310.8,37.5h6.4L314,20.6L310.8,37.5
			z"/>
	</g>
</g>
</svg>
