<?xml version="1.0" encoding="UTF-8" standalone="no"?>
<!DOCTYPE svg PUBLIC "-//W3C//DTD SVG 1.1//EN" "http://www.w3.org/Graphics/SVG/1.1/DTD/svg11.dtd">
<svg width="100%" height="100%" viewBox="0 0 24 25" version="1.1" xmlns="http://www.w3.org/2000/svg" xmlns:xlink="http://www.w3.org/1999/xlink" xml:space="preserve" xmlns:serif="http://www.serif.com/" style="fill-rule:evenodd;clip-rule:evenodd;stroke-linejoin:round;stroke-miterlimit:2;">
    <g transform="matrix(1,0,0,1,7.10543e-15,-6.03927)">
        <g transform="matrix(0.92678,0,0,-0.92678,-30.8833,116.676)">
            <g transform="matrix(1,0,0,1,37.5778,92.2939)">
                <path d="M0,4.559L0,5.639L-4.255,5.639L-4.255,0.245L0,0.245L0,1.324L-2.894,1.324L-2.894,2.403L-0.05,2.403L-0.05,3.482L-2.894,3.482L-2.894,4.559L0,4.559Z" style="fill:rgb(123,120,109);fill-rule:nonzero;"/>
            </g>
            <g transform="matrix(1,0,0,1,54.9612,90.3183)">
                <path d="M0,4.559L0.766,6.618L1.533,4.559L0,4.559ZM-9.995,4.559L-9.228,6.618L-8.462,4.559L-9.995,4.559ZM-13.606,3.332C-13.676,3.311 -13.749,3.299 -13.825,3.298L-15.157,3.298L-15.157,4.377L-13.831,4.377C-13.753,4.377 -13.677,4.366 -13.606,4.343C-13.386,4.275 -13.226,4.078 -13.226,3.838C-13.226,3.598 -13.386,3.4 -13.606,3.332M1.657,7.614L-0.124,7.614L-1.946,3.214L-1.946,4.008C-1.946,4.532 -2.273,4.93 -2.775,4.93C-2.298,5.145 -1.96,5.639 -1.96,6.196C-1.96,6.781 -2.323,7.286 -2.837,7.485C-3.05,7.568 -3.284,7.614 -3.531,7.614L-6.498,7.614L-6.498,6.535L-3.911,6.535C-3.832,6.535 -3.757,6.522 -3.686,6.501C-3.466,6.434 -3.306,6.235 -3.306,5.996C-3.306,5.756 -3.466,5.558 -3.686,5.49C-3.755,5.468 -3.829,5.457 -3.905,5.456L-6.498,5.456L-6.498,3.171L-8.338,7.614L-10.118,7.614L-11.987,3.102C-11.918,3.266 -11.88,3.447 -11.88,3.636C-11.88,4.221 -12.244,4.725 -12.758,4.925C-12.768,4.929 -12.778,4.932 -12.789,4.936C-12.311,5.153 -11.979,5.639 -11.979,6.196C-11.979,6.781 -12.342,7.286 -12.856,7.485C-13.069,7.568 -13.303,7.614 -13.55,7.614L-16.518,7.614L-16.518,6.535L-13.929,6.535C-13.851,6.535 -13.776,6.522 -13.705,6.501C-13.485,6.434 -13.325,6.235 -13.325,5.996C-13.325,5.756 -13.485,5.558 -13.705,5.49C-13.774,5.468 -13.848,5.457 -13.924,5.456L-16.518,5.456L-16.518,2.219L-10.866,2.219L-10.397,3.481L-8.06,3.481L-7.59,2.219L-5.138,2.219L-5.138,4.377L-3.894,4.377C-3.597,4.377 -3.357,4.136 -3.357,3.84L-3.357,2.219L-0.872,2.219L-0.402,3.481L1.935,3.481L2.405,2.219L3.891,2.219L1.657,7.614Z" style="fill:rgb(123,120,109);fill-rule:nonzero;"/>
            </g>
            <g transform="matrix(1,0,0,1,46.795,97.5486)">
                <path d="M0,4.559C-2.199,4.559 -4.527,4.761 -6.095,5.076C-4.527,5.392 -2.199,5.593 0,5.593C2.199,5.593 4.526,5.392 6.095,5.076C4.526,4.761 2.199,4.559 0,4.559M-5.775,8.436C-4.039,8.854 -1.618,9.123 0.816,9.123C3.25,9.123 5.672,8.854 7.407,8.436C5.672,8.016 3.25,7.747 0.816,7.747C-1.618,7.747 -4.039,8.016 -5.775,8.436M-5.496,12.524C-3.559,12.993 -0.884,13.292 1.832,13.292C4.549,13.292 7.224,12.993 9.16,12.524C7.224,12.056 4.549,11.757 1.832,11.757C-0.884,11.757 -3.559,12.056 -5.496,12.524M3.532,6.613C4.18,6.765 7.538,7.046 12.058,7.046L12.058,9.731C7.494,9.734 4.523,10.178 3.973,10.306C4.523,10.433 7.494,10.878 12.058,10.88L12.058,13.671C7.789,13.671 5.403,14.064 4.445,14.285C5.403,14.504 7.789,14.897 12.058,14.897L12.058,21.829L-13.466,21.829L-13.466,11.671C-12.72,11.682 -11.996,11.685 -11.31,11.685C-7.482,11.685 -1.82,11.57 0.983,10.574C-2.168,9.454 -7.721,9.377 -11.31,9.377C-11.996,9.377 -12.72,9.38 -13.466,9.391L-13.466,7.823C-13.196,7.825 -12.932,7.825 -12.674,7.825C-9.166,7.825 -4.542,7.737 -1.578,6.802C-4.542,5.869 -9.166,5.779 -12.674,5.779C-12.932,5.779 -13.196,5.78 -13.466,5.782L-13.466,4.431C-13.24,4.432 -13.018,4.433 -12.803,4.433C-10.261,4.433 -5.853,4.368 -3.704,3.692C-5.853,3.015 -10.261,2.95 -12.803,2.95C-13.018,2.95 -13.24,2.951 -13.466,2.951L-13.466,1.634L12.058,1.634L12.058,6.181C7.538,6.181 4.18,6.46 3.532,6.613" style="fill:rgb(32,86,174);fill-rule:nonzero;"/>
            </g>
        </g>
    </g>
</svg>
