<?xml version="1.0" encoding="UTF-8" standalone="no"?>
<!DOCTYPE svg PUBLIC "-//W3C//DTD SVG 1.1//EN" "http://www.w3.org/Graphics/SVG/1.1/DTD/svg11.dtd">
<svg width="100%" height="100%" viewBox="0 0 63 24" version="1.1" xmlns="http://www.w3.org/2000/svg" xmlns:xlink="http://www.w3.org/1999/xlink" xml:space="preserve" xmlns:serif="http://www.serif.com/" style="fill-rule:evenodd;clip-rule:evenodd;stroke-linejoin:round;stroke-miterlimit:2;">
    <g transform="matrix(1,0,0,1,-298.923,-308.306)">
        <g>
            <g transform="matrix(1,0,0,1,328.163,332.039)">
                <path d="M0,-5.028L0,-1.993L-2.914,-5.028L-5.073,-5.028L-5.073,0L-3.665,0L-3.665,-2.99L-0.743,0L1.414,0L1.414,-5.028L0,-5.028Z" style="fill:rgb(0,56,101);fill-rule:nonzero;"/>
            </g>
            <g transform="matrix(1,0,0,1,309.568,331.036)">
                <path d="M0,-3.024L1.15,-3.024C1.787,-3.024 2.137,-2.71 2.137,-2.191C2.137,-1.5 1.815,-1.268 0.863,-1.258L2.292,1.002L4.624,1.002L3.148,-1.128C3.374,-1.158 4.352,-1.294 4.352,-2.597C4.352,-4.017 2.934,-4.026 2.021,-4.026L-2.105,-4.026L-2.105,1.002L0,1.002L0,-3.024Z" style="fill:rgb(0,56,101);fill-rule:nonzero;"/>
            </g>
            <g transform="matrix(1,0,0,1,319.464,332.185)">
                <path d="M0,-5.174L0,-2.355C0,-1.881 -0.095,-1.548 -0.291,-1.338C-0.469,-1.149 -0.732,-1.056 -1.1,-1.056C-1.469,-1.056 -1.727,-1.149 -1.906,-1.338C-2.104,-1.549 -2.2,-1.881 -2.2,-2.355L-2.2,-5.174L-4.334,-5.174L-4.334,-2.222C-4.334,-1.427 -4.171,-1.093 -3.83,-0.753C-3.297,-0.224 -2.287,0 -1.1,0C0.087,0 1.108,-0.224 1.639,-0.753C1.982,-1.093 2.136,-1.427 2.136,-2.222L2.136,-5.174L0,-5.174Z" style="fill:rgb(0,56,101);fill-rule:nonzero;"/>
            </g>
            <g transform="matrix(1,0,0,1,334.6,332.039)">
                <path d="M0,-5.028L-3.431,-5.028L-3.431,0L0.001,0C2.512,0 3.678,-0.539 3.678,-2.526C3.678,-4.513 2.512,-5.028 0,-5.028M-0.227,-1.03L-1.311,-1.03L-1.311,-3.999L-0.227,-3.999C0.907,-3.999 1.435,-3.509 1.435,-2.515C1.435,-1.561 0.861,-1.03 -0.227,-1.03" style="fill:rgb(0,56,101);fill-rule:nonzero;"/>
            </g>
            <g transform="matrix(1,0,0,1,349.625,332.186)">
                <path d="M0,-5.325C-2.754,-5.325 -3.956,-4.325 -3.956,-2.689C-3.956,-0.876 -2.754,0 0,0C2.72,0 3.936,-0.881 3.936,-2.695C3.936,-4.313 2.72,-5.325 0,-5.325M-0.01,-1.019C-1.091,-1.019 -1.635,-1.589 -1.635,-2.667C-1.635,-3.759 -1.106,-4.313 -0.011,-4.313C1.095,-4.313 1.615,-3.759 1.615,-2.667C1.615,-1.527 1.142,-1.019 -0.01,-1.019" style="fill:rgb(0,56,101);fill-rule:nonzero;"/>
            </g>
            <g transform="matrix(1,0,0,1,341.719,330.962)">
                <path d="M0,-2.874L2.915,-2.874L3.582,-3.951L-2.161,-3.951L-2.161,1.077L0,1.077L0,-0.558L2.382,-0.558L3.062,-1.642L0,-1.642L0,-2.874Z" style="fill:rgb(0,56,101);fill-rule:nonzero;"/>
            </g>
            <g transform="matrix(1,0,0,1,303.954,329.436)">
                <path d="M0,0.182L0,1.617C0,1.617 -0.61,1.684 -0.907,1.684C-2.579,1.684 -2.759,0.775 -2.759,0.122C-2.759,-0.909 -2.092,-1.458 -0.751,-1.458C0.13,-1.458 0.595,-1.414 1.238,-1.3L1.493,-1.25L2.167,-2.342C0.686,-2.529 -0.25,-2.54 -1.062,-2.54C-3.782,-2.54 -5.031,-1.68 -5.031,0.15C-5.031,1.988 -3.806,2.722 -1.075,2.722C0.111,2.722 1.217,2.632 2.117,2.431L2.117,0.182L0,0.182Z" style="fill:rgb(0,56,101);fill-rule:nonzero;"/>
            </g>
            <g transform="matrix(1,0,0,1,358.722,330.142)">
                <path d="M0,-1.232C-0.981,-1.387 -1.609,-1.382 -1.609,-1.849C-1.609,-2.314 -0.619,-2.333 0.008,-2.333C0.384,-2.333 1.125,-2.26 1.696,-2.153L2.313,-3.134C1.892,-3.191 0.75,-3.304 -0.499,-3.304C-2.758,-3.304 -4.203,-2.91 -4.203,-1.814C-4.203,-0.654 -2.977,-0.44 -1.76,-0.243C-0.806,-0.089 -0.181,-0.065 -0.181,0.39C-0.181,0.903 -1.019,0.972 -1.859,0.972C-2.103,0.972 -2.821,0.929 -3.684,0.751L-4.401,1.897C-3.458,1.998 -3.015,2.072 -1.287,2.072C1.229,2.072 2.415,1.613 2.415,0.378C2.415,-0.77 1.173,-1.046 0,-1.232" style="fill:rgb(0,56,101);fill-rule:nonzero;"/>
            </g>
            <g transform="matrix(1,0,0,1,326.174,318.391)">
                <path d="M0,6.042L-4.33,6.042C-1.278,2.988 1.708,0 1.708,0C1.708,0 2.073,0.222 2.857,0.997C3.653,1.783 3.888,2.151 3.888,2.151L0,6.042Z" style="fill:rgb(0,56,101);fill-rule:nonzero;"/>
            </g>
            <g transform="matrix(1,0,0,1,324.178,308.306)">
                <path d="M0,11.434C-2.292,8.642 -2.93,7.424 -3.513,5.974C-3.885,5.05 -4.345,3.241 -3.395,2.29C-2.555,1.451 -0.9,1.741 0.766,2.488C2.676,3.343 4.879,4.903 6.951,6.841L13.793,0L13.793,4.321L7.535,10.584C7.535,10.584 6.855,9.877 6.508,9.534C2.832,5.918 -0.58,4.164 -1.43,4.999C-2.568,6.119 0.942,10.192 1.064,10.372L0,11.434Z" style="fill:rgb(0,56,101);fill-rule:nonzero;"/>
            </g>
            <g transform="matrix(1,0,0,1,337.971,318.572)">
                <path d="M0,5.861L-2.436,5.861C-2.436,5.861 -2.718,5.058 -3.576,3.717C-4.42,2.395 -5.191,1.641 -5.191,1.641L-3.549,0C-2.886,0.795 -2.182,1.724 -1.532,2.764C-0.929,3.729 -0.37,4.764 0,5.861" style="fill:rgb(0,56,101);fill-rule:nonzero;"/>
            </g>
        </g>
    </g>
</svg>
