<?xml version="1.0" encoding="UTF-8" standalone="no"?>
<!DOCTYPE svg PUBLIC "-//W3C//DTD SVG 1.1//EN" "http://www.w3.org/Graphics/SVG/1.1/DTD/svg11.dtd">
<svg width="100%" height="100%" viewBox="0 0 644 644" version="1.1" xmlns="http://www.w3.org/2000/svg" xmlns:xlink="http://www.w3.org/1999/xlink" xml:space="preserve" xmlns:serif="http://www.serif.com/" style="fill-rule:evenodd;clip-rule:evenodd;stroke-linecap:round;stroke-linejoin:round;stroke-miterlimit:1.5;">
    <g transform="matrix(1,0,0,1,-43414,-15824.1)">
        <g transform="matrix(1,0,0,1,50798.4,12730)">
            <g transform="matrix(1,0,0,1,-50798.4,-12730)">
                <path d="M43949.5,15824.6C43977.9,15824.6 44005.2,15835.9 44025.3,15856C44045.4,15876.1 44056.7,15903.4 44056.7,15931.8C44056.7,16050.5 44056.7,16240.8 44056.7,16359.6C44056.7,16388 44045.4,16415.3 44025.3,16435.4C44005.2,16455.5 43977.9,16466.8 43949.5,16466.8C43830.8,16466.8 43640.5,16466.8 43521.7,16466.8C43493.3,16466.8 43466,16455.5 43445.9,16435.4C43425.8,16415.3 43414.5,16388 43414.5,16359.6C43414.5,16240.8 43414.5,16050.5 43414.5,15931.8C43414.5,15903.4 43425.8,15876.1 43445.9,15856C43466,15835.9 43493.3,15824.6 43521.7,15824.6C43640.5,15824.6 43830.8,15824.6 43949.5,15824.6Z" style="fill:rgb(25,54,215);stroke:rgb(218,230,26);stroke-width:1.04px;"/>
            </g>
            <g transform="matrix(0.795772,0,0,0.795772,-1490.48,1976.84)">
                <g transform="matrix(2.46981,0,0,2.46981,-10804.1,516.403)">
                    <path d="M1452.32,561.283C1442.25,547.561 1436.31,530.634 1436.31,512.331C1436.31,466.583 1473.44,429.439 1519.19,429.425L1644.82,429.425L1626.21,484.764L1557.47,484.765C1508.31,484.764 1466.64,516.883 1452.32,561.283Z" style="fill:white;"/>
                </g>
                <g transform="matrix(-2.46981,0,0,-2.46981,-3200.67,3099.95)">
                    <path d="M1452.32,561.283C1442.25,547.561 1436.31,530.634 1436.31,512.331C1436.31,466.583 1473.44,429.439 1519.19,429.425L1644.82,429.425L1626.21,484.764L1557.47,484.765C1508.31,484.764 1466.64,516.883 1452.32,561.283Z" style="fill:white;"/>
                </g>
            </g>
        </g>
    </g>
</svg>
