<?xml version="1.0" encoding="UTF-8" standalone="no"?>
<!DOCTYPE svg PUBLIC "-//W3C//DTD SVG 1.1//EN" "http://www.w3.org/Graphics/SVG/1.1/DTD/svg11.dtd">
<svg width="100%" height="100%" viewBox="0 0 2428 299" version="1.1" xmlns="http://www.w3.org/2000/svg" xmlns:xlink="http://www.w3.org/1999/xlink" xml:space="preserve" xmlns:serif="http://www.serif.com/" style="fill-rule:evenodd;clip-rule:evenodd;stroke-linejoin:round;stroke-miterlimit:2;">
    <g transform="matrix(1,0,0,1,-46311.2,-16083.6)">
        <g transform="matrix(1,0,0,1,50798.4,12730)">
            <g transform="matrix(1,0,0,1,1649.22,0)">
                <g transform="matrix(3.82653,0,0,5.57061,-18587.9,-20502.6)">
                    <path d="M3364.94,4319.3L3370.46,4315.51C3371.51,4316.42 3372.78,4317.21 3374.28,4317.88C3375.78,4318.55 3377.39,4319.06 3379.13,4319.42C3380.87,4319.78 3382.65,4319.96 3384.47,4319.96C3386.45,4319.96 3388.16,4319.8 3389.6,4319.46C3391.03,4319.13 3392.14,4318.65 3392.93,4318.03C3393.72,4317.4 3394.12,4316.67 3394.12,4315.84C3394.12,4314.73 3393.34,4313.83 3391.78,4313.15C3390.22,4312.47 3387.44,4311.92 3383.44,4311.51C3379.52,4311.12 3376.33,4310.55 3373.89,4309.8C3371.44,4309.05 3369.64,4308.1 3368.49,4306.96C3367.34,4305.82 3366.76,4304.48 3366.76,4302.92C3366.76,4301.12 3367.5,4299.52 3368.97,4298.13C3370.45,4296.74 3372.48,4295.66 3375.07,4294.88C3377.66,4294.1 3380.61,4293.71 3383.93,4293.71C3387.81,4293.71 3391.26,4294.21 3394.3,4295.21C3397.33,4296.21 3399.9,4297.56 3402,4299.26L3396.54,4303.01C3395.01,4301.64 3393.18,4300.56 3391.05,4299.76C3388.93,4298.95 3386.57,4298.55 3383.99,4298.55C3381.36,4298.55 3379.21,4298.91 3377.56,4299.65C3375.9,4300.39 3375.07,4301.37 3375.07,4302.59C3375.07,4303.23 3375.39,4303.78 3376.04,4304.26C3376.69,4304.73 3377.77,4305.12 3379.28,4305.44C3380.8,4305.76 3382.85,4306.06 3385.44,4306.34C3389.36,4306.76 3392.57,4307.36 3395.06,4308.15C3397.54,4308.94 3399.39,4309.95 3400.61,4311.17C3401.82,4312.39 3402.43,4313.85 3402.43,4315.55C3402.43,4317.44 3401.66,4319.07 3400.12,4320.46C3398.58,4321.85 3396.46,4322.93 3393.75,4323.69C3391.04,4324.46 3387.91,4324.84 3384.35,4324.84C3380.18,4324.84 3376.46,4324.33 3373.19,4323.32C3369.91,4322.3 3367.16,4320.96 3364.94,4319.3Z" style="fill:rgb(23,37,84);fill-rule:nonzero;"/>
                    <path d="M3435.67,4324.17L3428.39,4324.17L3428.39,4319.96L3428.02,4319.3L3428.02,4311.42C3428.02,4309.95 3427.34,4308.81 3425.96,4308.01C3424.59,4307.2 3422.71,4306.8 3420.32,4306.8C3418.58,4306.8 3416.95,4307.03 3415.44,4307.48C3413.92,4307.94 3412.6,4308.59 3411.46,4309.42L3407.28,4306.09C3408.9,4304.98 3410.86,4304.11 3413.16,4303.48C3415.47,4302.86 3417.97,4302.55 3420.68,4302.55C3423.64,4302.55 3426.24,4302.89 3428.51,4303.59C3430.77,4304.28 3432.53,4305.28 3433.79,4306.57C3435.04,4307.86 3435.67,4309.44 3435.67,4311.3L3435.67,4324.17ZM3418.01,4324.84C3415.67,4324.84 3413.61,4324.55 3411.83,4323.96C3410.05,4323.38 3408.66,4322.57 3407.67,4321.55C3406.68,4320.52 3406.19,4319.32 3406.19,4317.96C3406.19,4316.52 3406.79,4315.29 3408.01,4314.28C3409.22,4313.26 3410.95,4312.48 3413.19,4311.92C3415.44,4311.37 3418.03,4311.09 3420.99,4311.09L3428.81,4311.09L3428.81,4314.67L3421.59,4314.67C3419.41,4314.67 3417.65,4314.94 3416.32,4315.46C3414.98,4315.99 3414.32,4316.76 3414.32,4317.76C3414.32,4318.67 3414.83,4319.39 3415.86,4319.92C3416.89,4320.45 3418.24,4320.71 3419.89,4320.71C3421.47,4320.71 3422.91,4320.48 3424.2,4320.03C3425.5,4319.57 3426.55,4318.94 3427.36,4318.13C3428.16,4317.32 3428.63,4316.41 3428.75,4315.38L3431.06,4316.13C3431.06,4317.85 3430.51,4319.37 3429.42,4320.67C3428.33,4321.98 3426.8,4323 3424.84,4323.73C3422.88,4324.47 3420.6,4324.84 3418.01,4324.84Z" style="fill:rgb(23,37,84);fill-rule:nonzero;"/>
                    <path d="M3470.48,4324.17L3462.48,4324.17L3462.48,4312.05C3462.48,4310.41 3461.93,4309.18 3460.84,4308.36C3459.75,4307.54 3458.27,4307.13 3456.41,4307.13C3455.12,4307.13 3453.88,4307.37 3452.71,4307.84C3451.54,4308.31 3450.59,4309.05 3449.86,4310.05C3449.13,4311.05 3448.77,4312.37 3448.77,4314.01L3448.77,4324.17L3440.76,4324.17L3440.76,4303.21L3448.71,4303.21L3448.71,4309.71L3447.74,4309.71C3448.1,4307.85 3448.86,4306.4 3450.01,4305.36C3451.16,4304.32 3452.52,4303.59 3454.08,4303.17C3455.63,4302.76 3457.18,4302.55 3458.72,4302.55C3462.36,4302.55 3465.23,4303.31 3467.33,4304.84C3469.43,4306.37 3470.48,4308.59 3470.48,4311.51L3470.48,4324.17Z" style="fill:rgb(23,37,84);fill-rule:nonzero;"/>
                    <path d="M3508.09,4324.17L3500.14,4324.17L3500.14,4319.21L3500.09,4318.92L3500.09,4313.84C3500.09,4312.45 3499.72,4311.26 3498.99,4310.28C3498.26,4309.29 3497.24,4308.52 3495.93,4307.96C3494.62,4307.41 3493.11,4307.13 3491.41,4307.13C3489.71,4307.13 3488.21,4307.41 3486.89,4307.96C3485.58,4308.52 3484.57,4309.29 3483.86,4310.28C3483.15,4311.26 3482.8,4312.41 3482.8,4313.71C3482.8,4314.96 3483.18,4316.09 3483.95,4317.09C3484.72,4318.09 3485.77,4318.87 3487.1,4319.42C3488.44,4319.98 3489.99,4320.26 3491.77,4320.26C3493.27,4320.26 3494.65,4320.05 3495.9,4319.65C3497.15,4319.25 3498.18,4318.68 3498.99,4317.94C3499.8,4317.21 3500.31,4316.37 3500.51,4315.42L3502.27,4316.17C3502.39,4317.76 3501.95,4319.21 3500.96,4320.53C3499.97,4321.85 3498.54,4322.89 3496.66,4323.67C3494.78,4324.45 3492.5,4324.84 3489.83,4324.84C3487,4324.84 3484.43,4324.37 3482.1,4323.42C3479.77,4322.48 3477.93,4321.17 3476.58,4319.51C3475.22,4317.84 3474.55,4315.91 3474.55,4313.71C3474.55,4311.49 3475.22,4309.55 3476.58,4307.88C3477.93,4306.21 3479.76,4304.91 3482.07,4303.96C3484.37,4303.02 3486.94,4302.55 3489.77,4302.55C3492.12,4302.55 3494.15,4302.85 3495.87,4303.46C3497.59,4304.07 3498.98,4304.92 3500.05,4306.01C3501.13,4307.09 3501.78,4308.32 3502.03,4309.71L3500.09,4309.71L3500.09,4294.17L3508.09,4294.17L3508.09,4324.17Z" style="fill:rgb(23,37,84);fill-rule:nonzero;"/>
                    <path d="M3536.84,4303.21L3544.91,4303.21L3530.41,4326.59C3529.24,4328.45 3527.76,4329.86 3525.99,4330.82C3524.21,4331.78 3521.84,4332.26 3518.89,4332.26L3514.95,4332.26L3514.95,4327.76L3518.46,4327.76C3519.68,4327.76 3520.7,4327.57 3521.53,4327.19C3522.36,4326.82 3523.01,4326.23 3523.5,4325.42L3524.17,4324.21L3511.12,4303.21L3519.43,4303.21L3529.38,4321.09L3526.77,4321.09L3536.84,4303.21Z" style="fill:rgb(23,37,84);fill-rule:nonzero;"/>
                    <path d="M3591.8,4294.38L3591.8,4312.59C3591.8,4316.53 3590.29,4319.56 3587.28,4321.67C3584.27,4323.78 3579.95,4324.84 3574.33,4324.84C3570.93,4324.84 3567.97,4324.4 3565.44,4323.53C3562.92,4322.65 3560.92,4321.4 3559.47,4319.78C3558.01,4318.15 3557.16,4316.21 3556.92,4313.96L3565.05,4313.3C3565.37,4315.44 3566.32,4317.07 3567.9,4318.19C3569.48,4319.32 3571.62,4319.88 3574.33,4319.88C3577.32,4319.88 3579.62,4319.26 3581.21,4318.01C3582.81,4316.76 3583.61,4314.95 3583.61,4312.59L3583.61,4294.38L3591.8,4294.38Z" style="fill:rgb(23,37,84);fill-rule:nonzero;"/>
                    <path d="M3625.95,4324.17L3618.67,4324.17L3618.67,4319.96L3618.31,4319.3L3618.31,4311.42C3618.31,4309.95 3617.62,4308.81 3616.24,4308.01C3614.87,4307.2 3612.99,4306.8 3610.6,4306.8C3608.86,4306.8 3607.24,4307.03 3605.72,4307.48C3604.2,4307.94 3602.88,4308.59 3601.75,4309.42L3597.56,4306.09C3599.18,4304.98 3601.14,4304.11 3603.45,4303.48C3605.75,4302.86 3608.26,4302.55 3610.97,4302.55C3613.92,4302.55 3616.53,4302.89 3618.79,4303.59C3621.06,4304.28 3622.82,4305.28 3624.07,4306.57C3625.32,4307.86 3625.95,4309.44 3625.95,4311.3L3625.95,4324.17ZM3608.3,4324.84C3605.95,4324.84 3603.89,4324.55 3602.11,4323.96C3600.33,4323.38 3598.95,4322.57 3597.96,4321.55C3596.97,4320.52 3596.47,4319.32 3596.47,4317.96C3596.47,4316.52 3597.08,4315.29 3598.29,4314.28C3599.5,4313.26 3601.23,4312.48 3603.48,4311.92C3605.72,4311.37 3608.32,4311.09 3611.27,4311.09L3619.1,4311.09L3619.1,4314.67L3611.88,4314.67C3609.69,4314.67 3607.93,4314.94 3606.6,4315.46C3605.26,4315.99 3604.6,4316.76 3604.6,4317.76C3604.6,4318.67 3605.11,4319.39 3606.14,4319.92C3607.18,4320.45 3608.52,4320.71 3610.18,4320.71C3611.76,4320.71 3613.19,4320.48 3614.49,4320.03C3615.78,4319.57 3616.83,4318.94 3617.64,4318.13C3618.45,4317.32 3618.91,4316.41 3619.03,4315.38L3621.34,4316.13C3621.34,4317.85 3620.79,4319.37 3619.7,4320.67C3618.61,4321.98 3617.08,4323 3615.12,4323.73C3613.16,4324.47 3610.89,4324.84 3608.3,4324.84Z" style="fill:rgb(23,37,84);fill-rule:nonzero;"/>
                    <path d="M3652.7,4303.21L3660.77,4303.21L3646.27,4326.59C3645.1,4328.45 3643.62,4329.86 3641.84,4330.82C3640.06,4331.78 3637.7,4332.26 3634.74,4332.26L3630.8,4332.26L3630.8,4327.76L3634.32,4327.76C3635.53,4327.76 3636.55,4327.57 3637.38,4327.19C3638.21,4326.82 3638.87,4326.23 3639.36,4325.42L3640.02,4324.21L3626.98,4303.21L3635.29,4303.21L3645.24,4321.09L3642.63,4321.09L3652.7,4303.21Z" style="fill:rgb(23,37,84);fill-rule:nonzero;"/>
                    <path d="M3690.06,4324.17L3682.78,4324.17L3682.78,4319.96L3682.42,4319.3L3682.42,4311.42C3682.42,4309.95 3681.73,4308.81 3680.36,4308.01C3678.98,4307.2 3677.1,4306.8 3674.72,4306.8C3672.98,4306.8 3671.35,4307.03 3669.84,4307.48C3668.32,4307.94 3666.99,4308.59 3665.86,4309.42L3661.68,4306.09C3663.29,4304.98 3665.26,4304.11 3667.56,4303.48C3669.87,4302.86 3672.37,4302.55 3675.08,4302.55C3678.03,4302.55 3680.64,4302.89 3682.91,4303.59C3685.17,4304.28 3686.93,4305.28 3688.18,4306.57C3689.44,4307.86 3690.06,4309.44 3690.06,4311.3L3690.06,4324.17ZM3672.41,4324.84C3670.07,4324.84 3668.01,4324.55 3666.23,4323.96C3664.45,4323.38 3663.06,4322.57 3662.07,4321.55C3661.08,4320.52 3660.59,4319.32 3660.59,4317.96C3660.59,4316.52 3661.19,4315.29 3662.41,4314.28C3663.62,4313.26 3665.35,4312.48 3667.59,4311.92C3669.84,4311.37 3672.43,4311.09 3675.39,4311.09L3683.21,4311.09L3683.21,4314.67L3675.99,4314.67C3673.81,4314.67 3672.05,4314.94 3670.72,4315.46C3669.38,4315.99 3668.71,4316.76 3668.71,4317.76C3668.71,4318.67 3669.23,4319.39 3670.26,4319.92C3671.29,4320.45 3672.64,4320.71 3674.29,4320.71C3675.87,4320.71 3677.31,4320.48 3678.6,4320.03C3679.89,4319.57 3680.95,4318.94 3681.75,4318.13C3682.56,4317.32 3683.03,4316.41 3683.15,4315.38L3685.45,4316.13C3685.45,4317.85 3684.91,4319.37 3683.82,4320.67C3682.72,4321.98 3681.2,4323 3679.24,4323.73C3677.28,4324.47 3675,4324.84 3672.41,4324.84Z" style="fill:rgb(23,37,84);fill-rule:nonzero;"/>
                    <path d="M3742.96,4294.38L3742.96,4312.42C3742.96,4316.34 3741.31,4319.39 3738.01,4321.57C3734.72,4323.75 3730.18,4324.84 3724.4,4324.84C3718.65,4324.84 3714.14,4323.75 3710.84,4321.57C3707.54,4319.39 3705.9,4316.34 3705.9,4312.42L3705.9,4294.38L3714.09,4294.38L3714.09,4312.42C3714.09,4314.7 3714.99,4316.51 3716.81,4317.86C3718.63,4319.21 3721.16,4319.88 3724.4,4319.88C3727.67,4319.88 3730.23,4319.21 3732.07,4317.86C3733.91,4316.51 3734.83,4314.7 3734.83,4312.42L3734.83,4294.38L3742.96,4294.38Z" style="fill:rgb(23,37,84);fill-rule:nonzero;"/>
                    <path d="M3768.62,4324.17L3760.97,4324.17C3758.22,4324.17 3756.15,4323.69 3754.76,4322.73C3753.36,4321.78 3752.66,4320.35 3752.66,4318.46L3752.66,4297.67L3760.67,4297.67L3760.67,4317.51C3760.67,4318.26 3760.91,4318.8 3761.4,4319.15C3761.88,4319.5 3762.65,4319.67 3763.7,4319.67L3768.62,4319.67L3768.62,4324.17ZM3768.25,4307.63L3747.33,4307.63L3747.33,4303.21L3768.25,4303.21L3768.25,4307.63Z" style="fill:rgb(23,37,84);fill-rule:nonzero;"/>
                    <path d="M3801.01,4324.17L3793.73,4324.17L3793.73,4319.96L3793.36,4319.3L3793.36,4311.42C3793.36,4309.95 3792.68,4308.81 3791.3,4308.01C3789.93,4307.2 3788.05,4306.8 3785.66,4306.8C3783.92,4306.8 3782.29,4307.03 3780.78,4307.48C3779.26,4307.94 3777.94,4308.59 3776.81,4309.42L3772.62,4306.09C3774.24,4304.98 3776.2,4304.11 3778.5,4303.48C3780.81,4302.86 3783.32,4302.55 3786.03,4302.55C3788.98,4302.55 3791.59,4302.89 3793.85,4303.59C3796.11,4304.28 3797.87,4305.28 3799.13,4306.57C3800.38,4307.86 3801.01,4309.44 3801.01,4311.3L3801.01,4324.17ZM3783.36,4324.84C3781.01,4324.84 3778.95,4324.55 3777.17,4323.96C3775.39,4323.38 3774.01,4322.57 3773.01,4321.55C3772.02,4320.52 3771.53,4319.32 3771.53,4317.96C3771.53,4316.52 3772.13,4315.29 3773.35,4314.28C3774.56,4313.26 3776.29,4312.48 3778.53,4311.92C3780.78,4311.37 3783.38,4311.09 3786.33,4311.09L3794.15,4311.09L3794.15,4314.67L3786.93,4314.67C3784.75,4314.67 3782.99,4314.94 3781.66,4315.46C3780.32,4315.99 3779.66,4316.76 3779.66,4317.76C3779.66,4318.67 3780.17,4319.39 3781.2,4319.92C3782.23,4320.45 3783.58,4320.71 3785.24,4320.71C3786.81,4320.71 3788.25,4320.48 3789.54,4320.03C3790.84,4319.57 3791.89,4318.94 3792.7,4318.13C3793.51,4317.32 3793.97,4316.41 3794.09,4315.38L3796.4,4316.13C3796.4,4317.85 3795.85,4319.37 3794.76,4320.67C3793.67,4321.98 3792.14,4323 3790.18,4323.73C3788.22,4324.47 3785.94,4324.84 3783.36,4324.84Z" style="fill:rgb(23,37,84);fill-rule:nonzero;"/>
                    <path d="M3855.05,4324.17L3847.05,4324.17L3847.05,4311.92C3847.05,4310.31 3846.56,4309.11 3845.59,4308.32C3844.62,4307.53 3843.31,4307.13 3841.65,4307.13C3840.43,4307.13 3839.29,4307.36 3838.22,4307.82C3837.15,4308.28 3836.28,4309 3835.61,4309.98C3834.95,4310.97 3834.61,4312.26 3834.61,4313.84L3834.61,4324.17L3826.61,4324.17L3826.61,4311.92C3826.61,4310.31 3826.12,4309.11 3825.15,4308.32C3824.18,4307.53 3822.84,4307.13 3821.15,4307.13C3819.93,4307.13 3818.79,4307.36 3817.72,4307.82C3816.65,4308.28 3815.78,4309 3815.11,4309.98C3814.44,4310.97 3814.11,4312.26 3814.11,4313.84L3814.11,4324.17L3806.1,4324.17L3806.1,4303.21L3814.05,4303.21L3814.05,4307.8L3813.62,4307.76C3814.19,4306.39 3815.01,4305.35 3816.08,4304.61C3817.15,4303.87 3818.35,4303.35 3819.66,4303.03C3820.97,4302.71 3822.28,4302.55 3823.57,4302.55C3826.12,4302.55 3828.25,4303.02 3829.97,4303.96C3831.69,4304.91 3832.83,4306.31 3833.4,4308.17L3832.61,4308.21C3833.22,4306.77 3834.12,4305.64 3835.31,4304.82C3836.5,4304 3837.85,4303.41 3839.34,4303.07C3840.84,4302.72 3842.32,4302.55 3843.77,4302.55C3847.33,4302.55 3850.1,4303.31 3852.08,4304.84C3854.06,4306.37 3855.05,4308.59 3855.05,4311.51L3855.05,4324.17Z" style="fill:rgb(23,37,84);fill-rule:nonzero;"/>
                    <path d="M3888.48,4324.17L3881.2,4324.17L3881.2,4319.96L3880.83,4319.3L3880.83,4311.42C3880.83,4309.95 3880.14,4308.81 3878.77,4308.01C3877.4,4307.2 3875.51,4306.8 3873.13,4306.8C3871.39,4306.8 3869.76,4307.03 3868.25,4307.48C3866.73,4307.94 3865.41,4308.59 3864.27,4309.42L3860.09,4306.09C3861.7,4304.98 3863.67,4304.11 3865.97,4303.48C3868.28,4302.86 3870.78,4302.55 3873.49,4302.55C3876.45,4302.55 3879.05,4302.89 3881.32,4303.59C3883.58,4304.28 3885.34,4305.28 3886.6,4306.57C3887.85,4307.86 3888.48,4309.44 3888.48,4311.3L3888.48,4324.17ZM3870.82,4324.84C3868.48,4324.84 3866.42,4324.55 3864.64,4323.96C3862.86,4323.38 3861.47,4322.57 3860.48,4321.55C3859.49,4320.52 3859,4319.32 3859,4317.96C3859,4316.52 3859.6,4315.29 3860.82,4314.28C3862.03,4313.26 3863.76,4312.48 3866,4311.92C3868.25,4311.37 3870.85,4311.09 3873.8,4311.09L3881.62,4311.09L3881.62,4314.67L3874.4,4314.67C3872.22,4314.67 3870.46,4314.94 3869.13,4315.46C3867.79,4315.99 3867.12,4316.76 3867.12,4317.76C3867.12,4318.67 3867.64,4319.39 3868.67,4319.92C3869.7,4320.45 3871.05,4320.71 3872.7,4320.71C3874.28,4320.71 3875.72,4320.48 3877.01,4320.03C3878.31,4319.57 3879.36,4318.94 3880.17,4318.13C3880.97,4317.32 3881.44,4316.41 3881.56,4315.38L3883.87,4316.13C3883.87,4317.85 3883.32,4319.37 3882.23,4320.67C3881.14,4321.98 3879.61,4323 3877.65,4323.73C3875.69,4324.47 3873.41,4324.84 3870.82,4324.84Z" style="fill:rgb(23,37,84);fill-rule:nonzero;"/>
                </g>
                <g transform="matrix(0.858873,0,0,0.858873,-758.008,2020.23)">
                    <g transform="matrix(1.85369,0,0,1.85369,-8919.84,756.494)">
                        <path d="M1452.32,561.283C1442.25,547.561 1436.31,530.634 1436.31,512.331C1436.31,466.583 1473.44,429.439 1519.19,429.425L1644.82,429.425L1626.21,484.764L1557.47,484.765C1508.31,484.764 1466.64,516.883 1452.32,561.283Z" style="fill:url(#_Linear1);"/>
                    </g>
                    <g transform="matrix(-1.85369,0,0,-1.85369,-3213.2,2695.55)">
                        <path d="M1452.32,561.283C1442.25,547.561 1436.31,530.634 1436.31,512.331C1436.31,466.583 1473.44,429.439 1519.19,429.425L1644.82,429.425L1626.21,484.764L1557.47,484.765C1508.31,484.764 1466.64,516.883 1452.32,561.283Z" style="fill:url(#_Linear2);"/>
                    </g>
                </g>
            </g>
        </g>
    </g>
    <defs>
        <linearGradient id="_Linear1" x1="0" y1="0" x2="1" y2="0" gradientUnits="userSpaceOnUse" gradientTransform="matrix(0.7112,113.327,-113.327,0.7112,1519.21,474.461)"><stop offset="0" style="stop-color:rgb(25,54,215);stop-opacity:1"/><stop offset="1" style="stop-color:rgb(1,204,253);stop-opacity:1"/></linearGradient>
        <linearGradient id="_Linear2" x1="0" y1="0" x2="1" y2="0" gradientUnits="userSpaceOnUse" gradientTransform="matrix(0.7112,113.327,-113.327,0.7112,1519.21,474.461)"><stop offset="0" style="stop-color:rgb(25,54,215);stop-opacity:1"/><stop offset="1" style="stop-color:rgb(1,204,253);stop-opacity:1"/></linearGradient>
    </defs>
</svg>
