<?xml version="1.0" encoding="UTF-8" standalone="no"?>
<!DOCTYPE svg PUBLIC "-//W3C//DTD SVG 1.1//EN" "http://www.w3.org/Graphics/SVG/1.1/DTD/svg11.dtd">
<svg width="100%" height="100%" viewBox="0 0 1153 464" version="1.1" xmlns="http://www.w3.org/2000/svg" xmlns:xlink="http://www.w3.org/1999/xlink" xml:space="preserve" xmlns:serif="http://www.serif.com/" style="fill-rule:evenodd;clip-rule:evenodd;stroke-linejoin:round;stroke-miterlimit:2;">
    <g transform="matrix(1,0,0,1,-44661.9,-18928.4)">
        <g transform="matrix(1,0,0,1,50798.4,12730)">
            <g transform="matrix(1.00147,0,0,1.00147,1137.35,1005.22)">
                <g transform="matrix(2.46981,0,0,2.46981,-10804.1,4125)">
                    <path d="M1452.32,561.283C1442.25,547.561 1436.31,530.634 1436.31,512.331C1436.31,466.583 1473.44,429.439 1519.19,429.425L1644.82,429.425L1626.21,484.764L1557.47,484.765C1508.31,484.764 1466.64,516.883 1452.32,561.283Z" style="fill:url(#_Linear1);"/>
                </g>
                <g transform="matrix(-2.46981,0,0,-2.46981,-3200.67,6708.54)">
                    <path d="M1452.32,561.283C1442.25,547.561 1436.31,530.634 1436.31,512.331C1436.31,466.583 1473.44,429.439 1519.19,429.425L1644.82,429.425L1626.21,484.764L1557.47,484.765C1508.31,484.764 1466.64,516.883 1452.32,561.283Z" style="fill:url(#_Linear2);"/>
                </g>
            </g>
            <g transform="matrix(0.998227,0,0,0.998227,-2660.39,4603.38)">
                <g transform="matrix(1,0,0,1,45.3369,20.9201)">
                    <g transform="matrix(4.43493,0,0,17.587,-25014.2,-110218)">
                        <path d="M4978.28,6363.12L4982.07,6362.16C4982.79,6362.39 4983.67,6362.59 4984.69,6362.76C4985.72,6362.93 4986.83,6363.06 4988.03,6363.15C4989.22,6363.24 4990.44,6363.29 4991.69,6363.29C4993.06,6363.29 4994.23,6363.24 4995.22,6363.16C4996.2,6363.08 4996.97,6362.96 4997.51,6362.8C4998.05,6362.64 4998.32,6362.46 4998.32,6362.25C4998.32,6361.97 4997.78,6361.74 4996.72,6361.57C4995.65,6361.4 4993.74,6361.26 4990.99,6361.15C4988.29,6361.06 4986.1,6360.91 4984.42,6360.72C4982.74,6360.53 4981.51,6360.3 4980.72,6360.01C4979.92,6359.72 4979.53,6359.38 4979.53,6358.99C4979.53,6358.53 4980.03,6358.13 4981.05,6357.78C4982.06,6357.43 4983.46,6357.16 4985.24,6356.96C4987.01,6356.77 4989.04,6356.67 4991.32,6356.67C4993.99,6356.67 4996.36,6356.79 4998.44,6357.05C5000.53,6357.3 5002.29,6357.64 5003.74,6358.07L4999.99,6359.01C4998.93,6358.67 4997.67,6358.4 4996.22,6358.19C4994.76,6357.99 4993.14,6357.89 4991.36,6357.89C4989.56,6357.89 4988.08,6357.98 4986.94,6358.16C4985.81,6358.35 4985.24,6358.6 4985.24,6358.91C4985.24,6359.07 4985.46,6359.21 4985.9,6359.33C4986.35,6359.44 4987.09,6359.55 4988.13,6359.63C4989.17,6359.71 4990.58,6359.78 4992.36,6359.85C4995.06,6359.96 4997.26,6360.11 4998.97,6360.31C5000.67,6360.51 5001.94,6360.76 5002.78,6361.07C5003.61,6361.38 5004.03,6361.75 5004.03,6362.17C5004.03,6362.65 5003.5,6363.06 5002.44,6363.41C5001.39,6363.76 4999.93,6364.03 4998.07,6364.23C4996.21,6364.42 4994.06,6364.52 4991.61,6364.52C4988.75,6364.52 4986.19,6364.39 4983.94,6364.13C4981.69,6363.88 4979.81,6363.54 4978.28,6363.12Z" style="fill:white;fill-rule:nonzero;"/>
                    </g>
                    <g transform="matrix(4.43493,0,0,17.587,-25014.2,-110218)">
                        <path d="M5026.86,6364.35L5021.86,6364.35L5021.86,6363.29L5021.61,6363.12L5021.61,6361.13C5021.61,6360.76 5021.14,6360.48 5020.19,6360.27C5019.25,6360.07 5017.96,6359.97 5016.32,6359.97C5015.12,6359.97 5014.01,6360.03 5012.97,6360.14C5011.92,6360.26 5011.01,6360.42 5010.24,6360.63L5007.36,6359.79C5008.47,6359.51 5009.82,6359.29 5011.4,6359.13C5012.99,6358.97 5014.71,6358.9 5016.57,6358.9C5018.6,6358.9 5020.39,6358.98 5021.94,6359.16C5023.5,6359.33 5024.71,6359.58 5025.57,6359.91C5026.43,6360.24 5026.86,6360.63 5026.86,6361.1L5026.86,6364.35ZM5014.74,6364.52C5013.12,6364.52 5011.71,6364.44 5010.49,6364.3C5009.26,6364.15 5008.31,6363.95 5007.63,6363.69C5006.95,6363.43 5006.61,6363.13 5006.61,6362.78C5006.61,6362.42 5007.03,6362.11 5007.86,6361.85C5008.69,6361.6 5009.88,6361.4 5011.42,6361.26C5012.97,6361.12 5014.75,6361.05 5016.78,6361.05L5022.15,6361.05L5022.15,6361.95L5017.19,6361.95C5015.69,6361.95 5014.49,6362.02 5013.57,6362.15C5012.65,6362.29 5012.19,6362.48 5012.19,6362.73C5012.19,6362.96 5012.55,6363.14 5013.26,6363.28C5013.97,6363.41 5014.89,6363.48 5016.03,6363.48C5017.11,6363.48 5018.1,6363.42 5018.99,6363.3C5019.88,6363.19 5020.6,6363.03 5021.15,6362.82C5021.71,6362.62 5022.03,6362.39 5022.11,6362.13L5023.69,6362.32C5023.69,6362.76 5023.32,6363.14 5022.57,6363.47C5021.82,6363.8 5020.77,6364.05 5019.42,6364.24C5018.08,6364.42 5016.51,6364.52 5014.74,6364.52Z" style="fill:white;fill-rule:nonzero;"/>
                    </g>
                    <g transform="matrix(4.43493,0,0,17.587,-25014.2,-110218)">
                        <path d="M5050.78,6364.35L5045.28,6364.35L5045.28,6361.29C5045.28,6360.88 5044.9,6360.57 5044.15,6360.36C5043.4,6360.15 5042.39,6360.05 5041.11,6360.05C5040.22,6360.05 5039.38,6360.11 5038.57,6360.23C5037.76,6360.35 5037.11,6360.53 5036.61,6360.79C5036.11,6361.04 5035.86,6361.37 5035.86,6361.78L5035.86,6364.35L5030.36,6364.35L5030.36,6359.06L5035.82,6359.06L5035.82,6360.7L5035.15,6360.7C5035.4,6360.23 5035.92,6359.87 5036.72,6359.61C5037.51,6359.34 5038.44,6359.16 5039.51,6359.05C5040.58,6358.95 5041.64,6358.9 5042.69,6358.9C5045.19,6358.9 5047.17,6359.09 5048.61,6359.47C5050.06,6359.86 5050.78,6360.42 5050.78,6361.15L5050.78,6364.35Z" style="fill:white;fill-rule:nonzero;"/>
                    </g>
                    <g transform="matrix(4.43493,0,0,17.587,-25014.2,-110218)">
                        <path d="M5076.61,6364.35L5071.15,6364.35L5071.15,6363.1L5071.11,6363.03L5071.11,6361.74C5071.11,6361.39 5070.86,6361.09 5070.36,6360.85C5069.86,6360.6 5069.16,6360.4 5068.26,6360.26C5067.35,6360.12 5066.32,6360.05 5065.15,6360.05C5063.99,6360.05 5062.95,6360.12 5062.05,6360.26C5061.15,6360.4 5060.45,6360.6 5059.97,6360.85C5059.48,6361.09 5059.24,6361.38 5059.24,6361.71C5059.24,6362.03 5059.5,6362.31 5060.03,6362.56C5060.56,6362.82 5061.28,6363.01 5062.19,6363.15C5063.11,6363.29 5064.18,6363.36 5065.4,6363.36C5066.43,6363.36 5067.38,6363.31 5068.24,6363.21C5069.1,6363.11 5069.81,6362.96 5070.36,6362.78C5070.92,6362.59 5071.26,6362.38 5071.4,6362.14L5072.61,6362.33C5072.69,6362.73 5072.4,6363.1 5071.72,6363.43C5071.03,6363.76 5070.05,6364.03 5068.76,6364.22C5067.47,6364.42 5065.9,6364.52 5064.07,6364.52C5062.12,6364.52 5060.35,6364.4 5058.76,6364.16C5057.16,6363.92 5055.9,6363.59 5054.97,6363.17C5054.03,6362.75 5053.57,6362.27 5053.57,6361.71C5053.57,6361.15 5054.03,6360.66 5054.97,6360.24C5055.9,6359.82 5057.15,6359.49 5058.74,6359.25C5060.32,6359.02 5062.08,6358.9 5064.03,6358.9C5065.64,6358.9 5067.03,6358.97 5068.22,6359.13C5069.4,6359.28 5070.35,6359.49 5071.09,6359.77C5071.83,6360.04 5072.28,6360.35 5072.44,6360.7L5071.11,6360.7L5071.11,6356.78L5076.61,6356.78L5076.61,6364.35Z" style="fill:white;fill-rule:nonzero;"/>
                    </g>
                    <g transform="matrix(4.43493,0,0,17.587,-25014.2,-110218)">
                        <path d="M5096.36,6359.06L5101.9,6359.06L5091.94,6364.96C5091.14,6365.43 5090.12,6365.78 5088.9,6366.03C5087.68,6366.27 5086.06,6366.39 5084.03,6366.39L5081.32,6366.39L5081.32,6365.25L5083.74,6365.25C5084.57,6365.25 5085.27,6365.2 5085.84,6365.11C5086.41,6365.02 5086.86,6364.87 5087.19,6364.66L5087.65,6364.36L5078.69,6359.06L5084.4,6359.06L5091.24,6363.57L5089.44,6363.57L5096.36,6359.06Z" style="fill:white;fill-rule:nonzero;"/>
                    </g>
                </g>
                <g transform="matrix(1,0,0,1,45.3369,21.4112)">
                    <g transform="matrix(4.43493,0,0,17.587,-25014.2,-110218)">
                        <path d="M5002.44,6365.77L5002.44,6370.36C5002.44,6371.35 5001.41,6372.12 4999.34,6372.65C4997.27,6373.18 4994.31,6373.45 4990.44,6373.45C4988.11,6373.45 4986.08,6373.34 4984.34,6373.12C4982.6,6372.9 4981.24,6372.58 4980.24,6372.17C4979.24,6371.76 4978.65,6371.27 4978.49,6370.7L4984.07,6370.54C4984.29,6371.08 4984.94,6371.49 4986.03,6371.77C4987.11,6372.06 4988.58,6372.2 4990.44,6372.2C4992.5,6372.2 4994.08,6372.04 4995.17,6371.73C4996.27,6371.41 4996.82,6370.95 4996.82,6370.36L4996.82,6365.77L5002.44,6365.77Z" style="fill:white;fill-rule:nonzero;"/>
                    </g>
                    <g transform="matrix(4.43493,0,0,17.587,-25014.2,-110218)">
                        <path d="M5025.9,6373.28L5020.9,6373.28L5020.9,6372.22L5020.65,6372.05L5020.65,6370.07C5020.65,6369.69 5020.18,6369.41 5019.24,6369.2C5018.29,6369 5017,6368.9 5015.36,6368.9C5014.17,6368.9 5013.05,6368.96 5012.01,6369.07C5010.97,6369.19 5010.06,6369.35 5009.28,6369.56L5006.4,6368.72C5007.51,6368.44 5008.86,6368.22 5010.44,6368.06C5012.03,6367.9 5013.75,6367.83 5015.61,6367.83C5017.64,6367.83 5019.43,6367.91 5020.99,6368.09C5022.54,6368.26 5023.75,6368.52 5024.61,6368.84C5025.47,6369.17 5025.9,6369.56 5025.9,6370.03L5025.9,6373.28ZM5013.78,6373.45C5012.17,6373.45 5010.75,6373.37 5009.53,6373.23C5008.31,6373.08 5007.35,6372.88 5006.67,6372.62C5005.99,6372.36 5005.65,6372.06 5005.65,6371.71C5005.65,6371.35 5006.07,6371.04 5006.9,6370.78C5007.74,6370.53 5008.92,6370.33 5010.47,6370.19C5012.01,6370.05 5013.79,6369.98 5015.82,6369.98L5021.19,6369.98L5021.19,6370.88L5016.24,6370.88C5014.74,6370.88 5013.53,6370.95 5012.61,6371.08C5011.69,6371.22 5011.24,6371.41 5011.24,6371.66C5011.24,6371.89 5011.59,6372.07 5012.3,6372.21C5013.01,6372.34 5013.93,6372.41 5015.07,6372.41C5016.15,6372.41 5017.14,6372.35 5018.03,6372.23C5018.92,6372.12 5019.64,6371.96 5020.19,6371.76C5020.75,6371.55 5021.07,6371.32 5021.15,6371.06L5022.74,6371.25C5022.74,6371.69 5022.36,6372.07 5021.61,6372.4C5020.86,6372.73 5019.81,6372.98 5018.47,6373.17C5017.12,6373.36 5015.56,6373.45 5013.78,6373.45Z" style="fill:white;fill-rule:nonzero;"/>
                    </g>
                    <g transform="matrix(4.43493,0,0,17.587,-25014.2,-110218)">
                        <path d="M5044.28,6367.99L5049.82,6367.99L5039.86,6373.89C5039.06,6374.36 5038.04,6374.71 5036.82,6374.96C5035.6,6375.2 5033.97,6375.32 5031.94,6375.32L5029.24,6375.32L5029.24,6374.18L5031.65,6374.18C5032.49,6374.18 5033.19,6374.14 5033.76,6374.04C5034.33,6373.95 5034.78,6373.8 5035.11,6373.6L5035.57,6373.29L5026.61,6367.99L5032.32,6367.99L5039.15,6372.5L5037.36,6372.5L5044.28,6367.99Z" style="fill:white;fill-rule:nonzero;"/>
                    </g>
                    <g transform="matrix(4.43493,0,0,17.587,-25014.2,-110218)">
                        <path d="M5069.94,6373.28L5064.94,6373.28L5064.94,6372.22L5064.69,6372.05L5064.69,6370.07C5064.69,6369.69 5064.22,6369.41 5063.28,6369.2C5062.33,6369 5061.04,6368.9 5059.4,6368.9C5058.21,6368.9 5057.09,6368.96 5056.05,6369.07C5055.01,6369.19 5054.1,6369.35 5053.32,6369.56L5050.44,6368.72C5051.56,6368.44 5052.9,6368.22 5054.49,6368.06C5056.07,6367.9 5057.79,6367.83 5059.65,6367.83C5061.68,6367.83 5063.47,6367.91 5065.03,6368.09C5066.58,6368.26 5067.79,6368.52 5068.65,6368.84C5069.51,6369.17 5069.94,6369.56 5069.94,6370.03L5069.94,6373.28ZM5057.82,6373.45C5056.21,6373.45 5054.79,6373.37 5053.57,6373.23C5052.35,6373.08 5051.4,6372.88 5050.72,6372.62C5050.03,6372.36 5049.69,6372.06 5049.69,6371.71C5049.69,6371.35 5050.11,6371.04 5050.94,6370.78C5051.78,6370.53 5052.97,6370.33 5054.51,6370.19C5056.05,6370.05 5057.83,6369.98 5059.86,6369.98L5065.24,6369.98L5065.24,6370.88L5060.28,6370.88C5058.78,6370.88 5057.57,6370.95 5056.65,6371.08C5055.74,6371.22 5055.28,6371.41 5055.28,6371.66C5055.28,6371.89 5055.63,6372.07 5056.34,6372.21C5057.05,6372.34 5057.97,6372.41 5059.11,6372.41C5060.19,6372.41 5061.18,6372.35 5062.07,6372.23C5062.96,6372.12 5063.68,6371.96 5064.24,6371.76C5064.79,6371.55 5065.11,6371.32 5065.19,6371.06L5066.78,6371.25C5066.78,6371.69 5066.4,6372.07 5065.65,6372.4C5064.9,6372.73 5063.85,6372.98 5062.51,6373.17C5061.16,6373.36 5059.6,6373.45 5057.82,6373.45Z" style="fill:white;fill-rule:nonzero;"/>
                    </g>
                </g>
                <g transform="matrix(1,0,0,1,45.3369,21.7425)">
                    <g transform="matrix(4.43493,0,0,17.587,-25014.2,-110207)">
                        <path d="M5005.15,6374.7L5005.15,6379.25C5005.15,6380.24 5004.02,6381 5001.76,6381.55C4999.49,6382.1 4996.38,6382.38 4992.4,6382.38C4988.46,6382.38 4985.35,6382.1 4983.09,6381.55C4980.83,6381 4979.69,6380.24 4979.69,6379.25L4979.69,6374.7L4985.32,6374.7L4985.32,6379.25C4985.32,6379.82 4985.94,6380.28 4987.19,6380.62C4988.44,6380.96 4990.18,6381.13 4992.4,6381.13C4994.65,6381.13 4996.41,6380.96 4997.67,6380.62C4998.94,6380.28 4999.57,6379.82 4999.57,6379.25L4999.57,6374.7L5005.15,6374.7Z" style="fill:white;fill-rule:nonzero;"/>
                    </g>
                    <g transform="matrix(4.43493,0,0,17.587,-25014.2,-110207)">
                        <path d="M5022.78,6382.21L5017.53,6382.21C5015.64,6382.21 5014.22,6382.09 5013.26,6381.85C5012.3,6381.61 5011.82,6381.25 5011.82,6380.77L5011.82,6375.53L5017.32,6375.53L5017.32,6380.53C5017.32,6380.72 5017.49,6380.86 5017.82,6380.94C5018.15,6381.03 5018.68,6381.08 5019.4,6381.08L5022.78,6381.08L5022.78,6382.21ZM5022.53,6378.04L5008.15,6378.04L5008.15,6376.93L5022.53,6376.93L5022.53,6378.04Z" style="fill:white;fill-rule:nonzero;"/>
                    </g>
                    <g transform="matrix(4.43493,0,0,17.587,-25014.2,-110207)">
                        <path d="M5045.03,6382.21L5040.03,6382.21L5040.03,6381.15L5039.78,6380.98L5039.78,6379C5039.78,6378.62 5039.31,6378.34 5038.36,6378.13C5037.42,6377.93 5036.12,6377.83 5034.49,6377.83C5033.29,6377.83 5032.17,6377.89 5031.13,6378C5030.09,6378.12 5029.18,6378.28 5028.4,6378.49L5025.53,6377.65C5026.64,6377.37 5027.99,6377.15 5029.57,6376.99C5031.15,6376.84 5032.88,6376.76 5034.74,6376.76C5036.76,6376.76 5038.56,6376.85 5040.11,6377.02C5041.67,6377.19 5042.88,6377.45 5043.74,6377.77C5044.6,6378.1 5045.03,6378.49 5045.03,6378.96L5045.03,6382.21ZM5032.9,6382.38C5031.29,6382.38 5029.88,6382.31 5028.65,6382.16C5027.43,6382.01 5026.48,6381.81 5025.8,6381.55C5025.12,6381.29 5024.78,6380.99 5024.78,6380.65C5024.78,6380.28 5025.19,6379.97 5026.03,6379.72C5026.86,6379.46 5028.05,6379.26 5029.59,6379.12C5031.13,6378.98 5032.92,6378.91 5034.94,6378.91L5040.32,6378.91L5040.32,6379.82L5035.36,6379.82C5033.86,6379.82 5032.65,6379.88 5031.74,6380.02C5030.82,6380.15 5030.36,6380.34 5030.36,6380.59C5030.36,6380.82 5030.72,6381.01 5031.42,6381.14C5032.13,6381.27 5033.06,6381.34 5034.19,6381.34C5035.28,6381.34 5036.26,6381.28 5037.15,6381.16C5038.04,6381.05 5038.76,6380.89 5039.32,6380.69C5039.88,6380.48 5040.19,6380.25 5040.28,6379.99L5041.86,6380.18C5041.86,6380.62 5041.49,6381 5040.74,6381.33C5039.99,6381.66 5038.94,6381.91 5037.59,6382.1C5036.24,6382.29 5034.68,6382.38 5032.9,6382.38Z" style="fill:white;fill-rule:nonzero;"/>
                    </g>
                    <g transform="matrix(4.43493,0,0,17.587,-25014.2,-110207)">
                        <path d="M5082.15,6382.21L5076.65,6382.21L5076.65,6379.12C5076.65,6378.72 5076.32,6378.41 5075.65,6378.21C5074.99,6378.01 5074.08,6377.91 5072.94,6377.91C5072.11,6377.91 5071.33,6377.97 5070.59,6378.09C5069.85,6378.2 5069.26,6378.38 5068.8,6378.63C5068.34,6378.88 5068.11,6379.21 5068.11,6379.61L5068.11,6382.21L5062.61,6382.21L5062.61,6379.12C5062.61,6378.72 5062.28,6378.41 5061.61,6378.21C5060.94,6378.01 5060.03,6377.91 5058.86,6377.91C5058.03,6377.91 5057.24,6377.97 5056.51,6378.09C5055.77,6378.2 5055.17,6378.38 5054.72,6378.63C5054.26,6378.88 5054.03,6379.21 5054.03,6379.61L5054.03,6382.21L5048.53,6382.21L5048.53,6376.93L5053.99,6376.93L5053.99,6378.08L5053.69,6378.07C5054.08,6377.73 5054.65,6377.46 5055.38,6377.28C5056.12,6377.09 5056.94,6376.96 5057.84,6376.88C5058.74,6376.8 5059.64,6376.76 5060.53,6376.76C5062.28,6376.76 5063.74,6376.88 5064.92,6377.11C5066.1,6377.35 5066.89,6377.71 5067.28,6378.18L5066.74,6378.19C5067.15,6377.82 5067.77,6377.54 5068.59,6377.33C5069.41,6377.12 5070.33,6376.98 5071.36,6376.89C5072.39,6376.8 5073.4,6376.76 5074.4,6376.76C5076.85,6376.76 5078.75,6376.95 5080.11,6377.34C5081.47,6377.72 5082.15,6378.28 5082.15,6379.02L5082.15,6382.21Z" style="fill:white;fill-rule:nonzero;"/>
                    </g>
                    <g transform="matrix(4.43493,0,0,17.587,-25014.2,-110207)">
                        <path d="M5105.11,6382.21L5100.11,6382.21L5100.11,6381.15L5099.86,6380.98L5099.86,6379C5099.86,6378.62 5099.39,6378.34 5098.44,6378.13C5097.5,6377.93 5096.21,6377.83 5094.57,6377.83C5093.38,6377.83 5092.26,6377.89 5091.22,6378C5090.17,6378.12 5089.26,6378.28 5088.49,6378.49L5085.61,6377.65C5086.72,6377.37 5088.07,6377.15 5089.65,6376.99C5091.24,6376.84 5092.96,6376.76 5094.82,6376.76C5096.85,6376.76 5098.64,6376.85 5100.19,6377.02C5101.75,6377.19 5102.96,6377.45 5103.82,6377.77C5104.68,6378.1 5105.11,6378.49 5105.11,6378.96L5105.11,6382.21ZM5092.99,6382.38C5091.38,6382.38 5089.96,6382.31 5088.74,6382.16C5087.51,6382.01 5086.56,6381.81 5085.88,6381.55C5085.2,6381.29 5084.86,6380.99 5084.86,6380.65C5084.86,6380.28 5085.28,6379.97 5086.11,6379.72C5086.94,6379.46 5088.13,6379.26 5089.67,6379.12C5091.22,6378.98 5093,6378.91 5095.03,6378.91L5100.4,6378.91L5100.4,6379.82L5095.44,6379.82C5093.94,6379.82 5092.74,6379.88 5091.82,6380.02C5090.9,6380.15 5090.44,6380.34 5090.44,6380.59C5090.44,6380.82 5090.8,6381.01 5091.51,6381.14C5092.22,6381.27 5093.14,6381.34 5094.28,6381.34C5095.36,6381.34 5096.35,6381.28 5097.24,6381.16C5098.12,6381.05 5098.85,6380.89 5099.4,6380.69C5099.96,6380.48 5100.28,6380.25 5100.36,6379.99L5101.94,6380.18C5101.94,6380.62 5101.57,6381 5100.82,6381.33C5100.07,6381.66 5099.02,6381.91 5097.67,6382.1C5096.33,6382.29 5094.76,6382.38 5092.99,6382.38Z" style="fill:white;fill-rule:nonzero;"/>
                    </g>
                </g>
            </g>
        </g>
    </g>
    <defs>
        <linearGradient id="_Linear1" x1="0" y1="0" x2="1" y2="0" gradientUnits="userSpaceOnUse" gradientTransform="matrix(0.7112,113.327,-113.327,0.7112,1519.21,474.461)"><stop offset="0" style="stop-color:white;stop-opacity:1"/><stop offset="1" style="stop-color:rgb(1,204,253);stop-opacity:1"/></linearGradient>
        <linearGradient id="_Linear2" x1="0" y1="0" x2="1" y2="0" gradientUnits="userSpaceOnUse" gradientTransform="matrix(0.7112,113.327,-113.327,0.7112,1519.21,474.461)"><stop offset="0" style="stop-color:white;stop-opacity:1"/><stop offset="1" style="stop-color:rgb(1,204,253);stop-opacity:1"/></linearGradient>
    </defs>
</svg>
