<?xml version="1.0" encoding="UTF-8" standalone="no"?>
<!DOCTYPE svg PUBLIC "-//W3C//DTD SVG 1.1//EN" "http://www.w3.org/Graphics/SVG/1.1/DTD/svg11.dtd">
<svg width="100%" height="100%" viewBox="0 0 216 80" version="1.1" xmlns="http://www.w3.org/2000/svg" xmlns:xlink="http://www.w3.org/1999/xlink" xml:space="preserve" xmlns:serif="http://www.serif.com/" style="fill-rule:evenodd;clip-rule:evenodd;stroke-linejoin:round;stroke-miterlimit:2;">
    <g transform="matrix(1,0,0,1,-12764.7,-8359.25)">
        <g transform="matrix(1,0,0,1,-0.0345762,-0.241022)">
            <g transform="matrix(0.534936,0,0,1.21087,7146.25,642.099)">
                <g>
                    <g transform="matrix(0.643858,0,0,0.643858,2919.62,2234.4)">
                        <g transform="matrix(1.86938,6.14191e-18,1.39027e-17,0.825849,1337.25,-62.8202)">
                            <path d="M5633.44,7956.41C5606.87,7956.41 5585.29,7934.83 5585.29,7908.26C5585.29,7881.68 5606.87,7860.1 5633.44,7860.1L5681.6,7860.1L5681.6,7888.05C5655.02,7888.05 5633.44,7909.63 5633.44,7936.2L5633.44,7956.41Z" style="fill:url(#_Linear1);"/>
                        </g>
                        <g transform="matrix(-1.86938,-6.14191e-18,-1.39027e-17,-0.825849,22489.4,13022.3)">
                            <path d="M5633.44,7956.41C5606.87,7956.41 5585.29,7934.83 5585.29,7908.26C5585.29,7881.68 5606.87,7860.1 5633.44,7860.1L5681.6,7860.1L5681.6,7888.05C5655.02,7888.05 5633.44,7909.63 5633.44,7936.2L5633.44,7956.41Z" style="fill:url(#_Linear2);"/>
                        </g>
                    </g>
                    <g transform="matrix(0.483239,0,0,0.213484,8136.39,4867.55)">
                        <path d="M5353.67,7140.29C5343.54,7140.29 5335.43,7137.87 5329.35,7133.04C5323.26,7128.2 5319.71,7121.3 5318.7,7112.34L5330.75,7112.34C5331.45,7118.18 5333.79,7122.63 5337.77,7125.67C5341.74,7128.71 5347.12,7130.23 5353.91,7130.23C5359.6,7130.23 5363.91,7129.18 5366.83,7127.07C5369.76,7124.97 5371.22,7121.97 5371.22,7118.07C5371.22,7114.56 5370.24,7111.77 5368.3,7109.7C5366.35,7107.64 5363.27,7105.94 5359.06,7104.61L5344.43,7099.94C5336.95,7097.52 5331.45,7094.48 5327.94,7090.81C5324.43,7087.15 5322.68,7082.51 5322.68,7076.89C5322.68,7072.14 5323.87,7068.04 5326.24,7064.61C5328.62,7061.18 5331.98,7058.51 5336.3,7056.6C5340.63,7054.69 5345.68,7053.73 5351.45,7053.73C5360.34,7053.73 5367.46,7055.98 5372.8,7060.46C5378.14,7064.94 5381.2,7071.16 5381.98,7079.11L5369.93,7079.11C5369,7073.81 5366.97,7069.93 5363.85,7067.48C5360.73,7065.02 5356.44,7063.79 5350.98,7063.79C5345.84,7063.79 5341.82,7064.81 5338.94,7066.83C5336.05,7068.86 5334.61,7071.71 5334.61,7075.37C5334.61,7078.34 5335.56,7080.81 5337.47,7082.8C5339.39,7084.79 5342.56,7086.48 5347.01,7087.89L5362.33,7092.8C5369.43,7095.06 5374.67,7098.14 5378.06,7102.04C5381.45,7105.94 5383.15,7110.85 5383.15,7116.78C5383.15,7124.27 5380.58,7130.06 5375.43,7134.15C5370.28,7138.24 5363.03,7140.29 5353.67,7140.29Z" style="fill:white;fill-rule:nonzero;"/>
                        <path d="M5389.12,7139.24L5420.82,7055.02L5431.58,7055.02L5401.28,7139.24L5389.12,7139.24ZM5454.27,7139.24L5423.97,7055.02L5435.32,7055.02L5467.14,7139.24L5454.27,7139.24ZM5405.14,7105.67L5450.29,7105.67L5450.29,7115.96L5405.14,7115.96L5405.14,7105.67Z" style="fill:white;fill-rule:nonzero;"/>
                        <path d="M5479.53,7139.24L5479.53,7055.02L5493.92,7055.02L5538.6,7127.07L5535.8,7127.66L5535.8,7055.02L5547.73,7055.02L5547.73,7139.24L5533.34,7139.24L5488.66,7067.18L5491.47,7066.6L5491.47,7139.24L5479.53,7139.24Z" style="fill:white;fill-rule:nonzero;"/>
                        <path d="M5572.53,7139.24L5572.53,7128.94L5594.63,7128.94C5601.34,7128.94 5607.09,7127.58 5611.89,7124.85C5616.68,7122.12 5620.37,7118.34 5622.94,7113.5C5625.51,7108.67 5626.8,7103.06 5626.8,7096.66C5626.8,7090.34 5625.53,7084.85 5623,7080.17C5620.46,7075.49 5616.8,7071.84 5612,7069.23C5607.21,7066.62 5601.42,7065.31 5594.63,7065.31L5572.64,7065.31L5572.64,7055.02L5594.63,7055.02C5603.68,7055.02 5611.56,7056.74 5618.26,7060.17C5624.97,7063.6 5630.17,7068.45 5633.88,7074.73C5637.58,7081.01 5639.43,7088.4 5639.43,7096.9C5639.43,7105.39 5637.56,7112.82 5633.82,7119.18C5630.07,7125.53 5624.87,7130.47 5618.2,7133.97C5611.53,7137.48 5603.72,7139.24 5594.75,7139.24L5572.53,7139.24ZM5565.04,7139.24L5565.04,7055.02L5577.44,7055.02L5577.44,7139.24L5565.04,7139.24Z" style="fill:white;fill-rule:nonzero;"/>
                        <path d="M5671.25,7139.24L5671.25,7102.51L5639.55,7055.02L5654.52,7055.02L5681.31,7096.9L5674.88,7096.9L5701.66,7055.02L5715.35,7055.02L5683.65,7102.51L5683.65,7139.24L5671.25,7139.24Z" style="fill:white;fill-rule:nonzero;"/>
                        <path d="M5330.98,7251.81C5328.02,7251.81 5325.17,7251.59 5322.44,7251.16C5319.71,7250.74 5317.73,7250.21 5316.48,7249.59L5316.48,7239.06C5318.19,7239.76 5320.26,7240.35 5322.68,7240.81C5325.1,7241.28 5327.55,7241.51 5330.05,7241.51C5335.19,7241.51 5339.07,7240.44 5341.69,7238.3C5344.3,7236.15 5345.6,7232.74 5345.6,7228.06L5345.6,7166.42L5358,7166.42L5358,7228.53C5358,7236.33 5355.7,7242.16 5351.1,7246.02C5346.5,7249.88 5339.79,7251.81 5330.98,7251.81Z" style="fill:white;fill-rule:nonzero;"/>
                        <path d="M5366.07,7250.64L5397.77,7166.42L5408.53,7166.42L5378.24,7250.64L5366.07,7250.64ZM5431.23,7250.64L5400.93,7166.42L5412.28,7166.42L5444.09,7250.64L5431.23,7250.64ZM5382.1,7217.07L5427.25,7217.07L5427.25,7227.36L5382.1,7227.36L5382.1,7217.07Z" style="fill:white;fill-rule:nonzero;"/>
                        <path d="M5467.72,7250.64L5467.72,7213.91L5436.02,7166.42L5450.99,7166.42L5477.78,7208.3L5471.35,7208.3L5498.13,7166.42L5511.82,7166.42L5480.12,7213.91L5480.12,7250.64L5467.72,7250.64Z" style="fill:white;fill-rule:nonzero;"/>
                        <path d="M5503.75,7250.64L5535.45,7166.42L5546.21,7166.42L5515.91,7250.64L5503.75,7250.64ZM5568.9,7250.64L5538.6,7166.42L5549.95,7166.42L5581.77,7250.64L5568.9,7250.64ZM5519.77,7217.07L5564.92,7217.07L5564.92,7227.36L5519.77,7227.36L5519.77,7217.07Z" style="fill:white;fill-rule:nonzero;"/>
                        <path d="M5355.78,7363.21C5345.02,7363.21 5336.75,7360.05 5330.98,7353.73C5325.21,7347.42 5322.33,7338.41 5322.33,7326.71L5322.33,7277.82L5334.73,7277.82L5334.73,7328.12C5334.73,7336.15 5336.56,7342.25 5340.22,7346.42C5343.89,7350.6 5349.07,7352.68 5355.78,7352.68C5362.64,7352.68 5367.91,7350.61 5371.57,7346.48C5375.24,7342.35 5377.07,7336.23 5377.07,7328.12L5377.07,7277.82L5389.47,7277.82L5389.47,7326.95C5389.47,7338.49 5386.56,7347.42 5380.75,7353.73C5374.94,7360.05 5366.62,7363.21 5355.78,7363.21Z" style="fill:white;fill-rule:nonzero;"/>
                        <path d="M5428.19,7362.04L5428.19,7288L5399.76,7288L5399.76,7277.82L5469.01,7277.82L5469.01,7288L5440.58,7288L5440.58,7362.04L5428.19,7362.04Z" style="fill:white;fill-rule:nonzero;"/>
                        <path d="M5462.34,7362.04L5494.04,7277.82L5504.8,7277.82L5474.51,7362.04L5462.34,7362.04ZM5527.49,7362.04L5497.2,7277.82L5508.54,7277.82L5540.36,7362.04L5527.49,7362.04ZM5478.36,7328.47L5523.52,7328.47L5523.52,7338.76L5478.36,7338.76L5478.36,7328.47Z" style="fill:white;fill-rule:nonzero;"/>
                        <path d="M5552.76,7362.04L5552.76,7277.82L5571.94,7277.82L5600.01,7359L5593.7,7359L5621.54,7277.82L5640.95,7277.82L5640.95,7362.04L5628.67,7362.04L5628.67,7282.85L5630.54,7282.85L5603.41,7362.04L5589.6,7362.04L5562.47,7283.55L5564.34,7283.55L5564.34,7362.04L5552.76,7362.04Z" style="fill:white;fill-rule:nonzero;"/>
                        <path d="M5653.35,7362.04L5685.05,7277.82L5695.81,7277.82L5665.52,7362.04L5653.35,7362.04ZM5718.51,7362.04L5688.21,7277.82L5699.56,7277.82L5731.37,7362.04L5718.51,7362.04ZM5669.38,7328.47L5714.53,7328.47L5714.53,7338.76L5669.38,7338.76L5669.38,7328.47Z" style="fill:white;fill-rule:nonzero;"/>
                    </g>
                </g>
            </g>
        </g>
    </g>
    <defs>
        <linearGradient id="_Linear1" x1="0" y1="0" x2="1" y2="0" gradientUnits="userSpaceOnUse" gradientTransform="matrix(32.3837,96.3055,-96.3055,32.3837,5622.48,7888.05)"><stop offset="0" style="stop-color:white;stop-opacity:1"/><stop offset="1" style="stop-color:rgb(1,204,253);stop-opacity:1"/></linearGradient>
        <linearGradient id="_Linear2" x1="0" y1="0" x2="1" y2="0" gradientUnits="userSpaceOnUse" gradientTransform="matrix(78.5129,96.3055,-96.3055,78.5129,5633.44,7888.05)"><stop offset="0" style="stop-color:white;stop-opacity:1"/><stop offset="1" style="stop-color:rgb(1,204,253);stop-opacity:1"/></linearGradient>
    </defs>
</svg>
