<svg width="18" height="18" viewBox="0 0 18 18" fill="none" xmlns="http://www.w3.org/2000/svg">
<path fill-rule="evenodd" clip-rule="evenodd" d="M0 5C0 2.23858 2.23858 0 5 0H13C15.7614 0 18 2.23858 18 5V13C18 15.7614 15.7614 18 13 18H5C2.23858 18 0 15.7614 0 13V5ZM5 2C3.34315 2 2 3.34315 2 5V13C2 14.6569 3.34315 16 5 16H13C14.6569 16 16 14.6569 16 13V5C16 3.34315 14.6569 2 13 2H5ZM12.5968 4.21448C12.5968 3.66219 13.0445 3.21448 13.5968 3.21448H13.6068C14.1591 3.21448 14.6068 3.66219 14.6068 4.21448C14.6068 4.76676 14.1591 5.21448 13.6068 5.21448H13.5968C13.0445 5.21448 12.5968 4.76676 12.5968 4.21448ZM9 6C7.34315 6 6 7.34315 6 9C6 10.6569 7.34315 12 9 12C10.6569 12 12 10.6569 12 9C12 7.34315 10.6569 6 9 6ZM4 9C4 6.23858 6.23858 4 9 4C11.7614 4 14 6.23858 14 9C14 11.7614 11.7614 14 9 14C6.23858 14 4 11.7614 4 9Z" fill="#383838"/>
</svg>
