<svg width="16" height="16" viewBox="0 0 16 16" fill="none" xmlns="http://www.w3.org/2000/svg">
<path fill-rule="evenodd" clip-rule="evenodd" d="M8.51093 4.8302V6.52791C8.86639 5.98522 9.35631 5.54458 9.93264 5.2492C10.509 4.95383 11.1519 4.81387 11.7984 4.84305C15.2533 4.84305 16 7.00318 16 9.81307V15.5345H12.8V10.4628C12.8 9.25323 12.5557 7.69682 10.672 7.69682C8.8448 7.69682 8.53333 9.01346 8.53333 10.3729V15.5345H5.34293V4.8302H8.51093Z" fill="#2F2F38"/>
<path fill-rule="evenodd" clip-rule="evenodd" d="M3.2 2.1402C3.2 2.45777 3.10616 2.7682 2.93035 3.03225C2.75454 3.2963 2.50466 3.5021 2.21229 3.62363C1.91993 3.74515 1.59823 3.77695 1.28786 3.715C0.977487 3.65304 0.692394 3.50012 0.46863 3.27557C0.244866 3.05101 0.0924806 2.76491 0.0307443 2.45344C-0.0309921 2.14198 0.000693258 1.81914 0.121793 1.52574C0.242894 1.23235 0.44797 0.981578 0.711088 0.805147C0.974207 0.628716 1.28355 0.534546 1.6 0.534546C2.02435 0.534546 2.43131 0.703712 2.73137 1.00483C3.03143 1.30595 3.2 1.71435 3.2 2.1402Z" fill="#2F2F38"/>
<path d="M3.2 4.84305H1.01706e-06V15.5345H3.2V4.84305Z" fill="#2F2F38"/>
</svg>
